<?xml version="1.0" standalone="no"?>
<!DOCTYPE svg PUBLIC "-//W3C//DTD SVG 20010904//EN"
 "http://www.w3.org/TR/2001/REC-SVG-20010904/DTD/svg10.dtd">
<svg version="1.0" xmlns="http://www.w3.org/2000/svg"
 width="176.000000pt" height="176.000000pt" viewBox="0 0 176.000000 176.000000"
 preserveAspectRatio="xMidYMid meet">
<metadata>
Created by potrace 1.14, written by Peter Selinger 2001-2017
</metadata>
<g transform="translate(0.000000,176.000000) scale(0.100000,-0.100000)"
fill="#000000" stroke="none">
<path d="M645 1290 l-65 -130 -140 0 c-77 0 -140 -3 -139 -7 0 -5 31 -68 68
-142 l68 -135 -128 -264 c-71 -145 -129 -265 -129 -266 0 0 86 -1 191 -1 l192
0 30 63 c17 34 34 62 37 62 3 0 19 -27 36 -61 l30 -60 192 -2 c105 -1 192 -1
192 1 0 1 -13 29 -30 62 -16 33 -41 84 -54 115 l-25 55 52 0 52 0 58 -115 57
-115 167 -1 c93 0 178 -2 191 -3 14 -2 22 2 20 10 -2 7 -120 249 -263 538
l-260 525 -167 1 -168 0 -65 -130z m396 -130 c37 -74 130 -262 208 -417 l141
-283 -63 0 -62 0 -58 115 -57 115 -180 0 c-99 0 -180 -2 -180 -5 0 -3 23 -50
50 -105 28 -55 50 -104 50 -110 0 -6 -26 -10 -60 -10 l-60 0 -145 290 -145
290 65 0 65 0 57 -115 58 -115 183 0 183 0 -107 210 -108 210 -55 -105 c-30
-58 -58 -105 -61 -105 -3 0 -18 25 -33 55 l-27 55 40 85 39 86 97 -3 97 -3 68
-135z m-131 -190 c16 -33 30 -62 30 -65 0 -3 -30 -5 -66 -5 -36 0 -64 3 -62 8
18 37 63 122 65 122 1 0 16 -27 33 -60z m-374 -302 l30 -63 -37 -70 -37 -70
-66 -3 -66 -3 67 136 c37 74 70 135 73 135 3 0 19 -28 36 -62z"/>
</g>
</svg>
